<svg xmlns="http://www.w3.org/2000/svg" width="20" height="20" viewBox="0 0 20 20">
  <g fill="none" fill-rule="evenodd" transform="translate(-2 -2)">
    <g stroke="#2B50ED" stroke-width="2" transform="translate(3 3)">
      <path fill="#2B50ED" d="M2,0 L16,0 C17.1045695,-2.02906125e-16 18,0.8954305 18,2 L18,3 L18,3 L0,3 L0,2 C-1.3527075e-16,0.8954305 0.8954305,2.02906125e-16 2,0 Z"/>
      <rect width="6" height="5" y="3" fill="#FFF"/>
      <rect width="6" height="5" y="8" fill="#FFF"/>
      <rect width="6" height="5" x="6" y="8" fill="#FFF"/>
      <rect width="6" height="5" x="6" y="13" fill="#FFF"/>
      <path fill="#FFF" d="M12,13 L18,13 L18,16 C18,17.1045695 17.1045695,18 16,18 L12,18 L12,18 L12,13 Z"/>
      <rect width="6" height="5" x="12" y="8" fill="#FFF"/>
      <path fill="#FFF" d="M0,13 L6,13 L6,18 L2,18 C0.8954305,18 1.3527075e-16,17.1045695 0,16 L0,13 L0,13 Z"/>
      <rect width="6" height="5" x="6" y="3" fill="#FFF"/>
      <rect width="6" height="5" x="12" y="3" fill="#FFF"/>
    </g>
    <polygon points="0 0 24 0 24 24 0 24"/>
  </g>
</svg>
