<?xml version="1.0" encoding="utf-8"?>
<!-- Generator: Adobe Illustrator 24.1.0, SVG Export Plug-In . SVG Version: 6.00 Build 0)  -->
<svg version="1.1" id="Layer_1" xmlns="http://www.w3.org/2000/svg" xmlns:xlink="http://www.w3.org/1999/xlink" x="0px" y="0px"
	 viewBox="0 0 16 18" style="enable-background:new 0 0 16 18;" xml:space="preserve">
<style type="text/css">
	.st0{fill:#55575A;}
</style>
<g>
	<path class="st0" d="M14.4,1.6h-0.8V0H12v1.6H4V0H2.4v1.6H1.6C0.7,1.6,0,2.4,0,3.3v13.1C0,17.3,0.7,18,1.6,18h12.8
		c0.9,0,1.6-0.7,1.6-1.6V3.3C16,2.4,15.3,1.6,14.4,1.6z M14,16H2V7h12V16z"/>
	<rect x="4" y="8" class="st0" width="2" height="2"/>
	<rect x="4" y="10.5" class="st0" width="2" height="2"/>
	<rect x="4" y="13" class="st0" width="2" height="2"/>
	<rect x="7" y="8" class="st0" width="2" height="2"/>
	<rect x="7" y="10.5" class="st0" width="2" height="2"/>
	<rect x="7" y="13" class="st0" width="2" height="2"/>
	<rect x="10" y="13" class="st0" width="2" height="2"/>
	<rect x="10" y="8" class="st0" width="2" height="2"/>
	<rect x="10" y="10.5" class="st0" width="2" height="2"/>
</g>
</svg>
