<?xml version="1.0" encoding="utf-8"?>
<!-- Generator: Adobe Illustrator 24.1.0, SVG Export Plug-In . SVG Version: 6.00 Build 0)  -->
<svg version="1.1" id="Layer_1" xmlns="http://www.w3.org/2000/svg" xmlns:xlink="http://www.w3.org/1999/xlink" x="0px" y="0px"
	 viewBox="0 0 18 18" style="enable-background:new 0 0 18 18;" xml:space="preserve">
<style type="text/css">
	.st0{fill:#55575A;}
</style>
<path class="st0" d="M17,12.4c-1.2,0-2.4-0.2-3.5-0.6c-0.3-0.1-0.7,0-1,0.2l-1.6,2C8.1,12.7,5.4,10.1,4,7.2L6,5.5
	c0.3-0.3,0.3-0.7,0.2-1C5.8,3.4,5.6,2.2,5.6,1c0-0.5-0.4-1-1-1H1.2C0.6,0,0,0.2,0,1c0,9.3,7.7,17,17,17c0.7,0,1-0.6,1-1.2v-3.4
	C18,12.8,17.5,12.4,17,12.4z"/>
</svg>
