<?xml version="1.0" encoding="utf-8"?>
<!-- Generator: Adobe Illustrator 24.1.0, SVG Export Plug-In . SVG Version: 6.00 Build 0)  -->
<svg version="1.1" id="Layer_1" xmlns="http://www.w3.org/2000/svg" xmlns:xlink="http://www.w3.org/1999/xlink" x="0px" y="0px"
	 viewBox="0 0 517.9 517.9" style="enable-background:new 0 0 517.9 517.9;" xml:space="preserve">
<style type="text/css">
	.st0{fill:none;}
	.st1{fill:#55575A;}
</style>
<g>
	<path class="st0" d="M1.9,459.7c0,31.1,25.3,56.3,56.3,56.3h113.7V374.7H1.9V459.7z"/>
	<rect x="173.9" y="88" class="st0" width="170" height="141.3"/>
	<rect x="173.9" y="231.3" class="st0" width="170" height="141.3"/>
	<rect x="173.9" y="374.7" class="st0" width="170" height="141.3"/>
	<path class="st0" d="M345.9,516h113.7c31.1,0,56.3-25.3,56.3-56.3v-85h-170V516z"/>
	<rect x="345.9" y="231.3" class="st0" width="170" height="141.3"/>
	<rect x="345.9" y="88" class="st0" width="170" height="141.3"/>
	<rect x="1.9" y="88" class="st0" width="170" height="141.3"/>
	<rect x="1.9" y="231.3" class="st0" width="170" height="141.3"/>
	<path class="st1" d="M459.6,0H58.3C26.1,0,0,26.2,0,58.3V86v2v141.3v2v141.3v2v85c0,32.2,26.2,58.3,58.3,58.3h113.6h2h170h2h113.7
		c32.2,0,58.3-26.2,58.3-58.3v-85v-2V231.3v-2V88v-2V58.3C517.9,26.2,491.7,0,459.6,0z M515.9,459.7c0,31.1-25.3,56.3-56.3,56.3
		H345.9V374.7h170V459.7z M343.9,516h-170V374.7h170V516z M171.9,516H58.2c-31.1,0-56.3-25.3-56.3-56.3v-85h170V516z M343.9,229.3
		h-170V88h170V229.3z M343.9,372.7h-170V231.3h170V372.7z M1.9,88h170v141.3H1.9V88z M1.9,231.3h170v141.3H1.9V231.3z M515.9,372.7
		h-170V231.3h170V372.7z M515.9,229.3h-170V88h170V229.3z"/>
</g>
</svg>
