<?xml version="1.0" encoding="utf-8"?>
<!-- Generator: Adobe Illustrator 24.1.0, SVG Export Plug-In . SVG Version: 6.00 Build 0)  -->
<svg version="1.1" id="Layer_1" xmlns="http://www.w3.org/2000/svg" xmlns:xlink="http://www.w3.org/1999/xlink" x="0px" y="0px"
	 viewBox="0 0 16 22.2" style="enable-background:new 0 0 16 22.2;" xml:space="preserve">
<style type="text/css">
	.st0{fill:#55575A;}
</style>
<path class="st0" d="M8,3V0L4,4l4,4v-3c3.3,0,6,2.7,6,6.1c0,1-0.2,2-0.7,2.8l1.5,1.5c0.8-1.2,1.2-2.7,1.2-4.3C16,6.6,12.4,3,8,3z
	 M8,17.2c-3.3,0-6-2.7-6-6.1c0-1,0.2-2,0.7-2.8L1.2,6.8C0.5,8.1,0,9.5,0,11.1c0,4.5,3.6,8.1,8,8.1v3l4-4l-4-4V17.2z"/>
</svg>
