<?xml version="1.0" encoding="utf-8"?>
<!-- Generator: Adobe Illustrator 24.1.0, SVG Export Plug-In . SVG Version: 6.00 Build 0)  -->
<svg version="1.1" id="Layer_1" xmlns="http://www.w3.org/2000/svg" xmlns:xlink="http://www.w3.org/1999/xlink" x="0px" y="0px"
	 viewBox="0 0 334.5 439" style="enable-background:new 0 0 334.5 439;" xml:space="preserve">
<style type="text/css">
	.st0{fill:#55575A;}
</style>
<path class="st0" d="M292.7,146.3h-20.9v-41.8C271.8,46.8,224.9,0,167.2,0S62.7,46.8,62.7,104.5v41.8H41.8
	c-23,0-41.8,18.8-41.8,41.8v209c0,23,18.8,41.8,41.8,41.8h250.9c23,0,41.8-18.8,41.8-41.8v-209C334.5,165.1,315.7,146.3,292.7,146.3
	z M167.2,334.5c-23,0-41.8-18.8-41.8-41.8c0-23,18.8-41.8,41.8-41.8s41.8,18.8,41.8,41.8C209,315.7,190.2,334.5,167.2,334.5z
	 M232,146.3H102.4v-41.8c0-35.7,29.1-64.8,64.8-64.8S232,68.8,232,104.5V146.3z"/>
</svg>
