<?xml version="1.0" encoding="utf-8"?>
<!-- Generator: Adobe Illustrator 24.1.0, SVG Export Plug-In . SVG Version: 6.00 Build 0)  -->
<svg version="1.1" id="Layer_1" xmlns="http://www.w3.org/2000/svg" xmlns:xlink="http://www.w3.org/1999/xlink" x="0px" y="0px"
	 viewBox="0 0 14 5" style="enable-background:new 0 0 14 5;" xml:space="preserve">
<style type="text/css">
	.st0{fill:#55575A;}
</style>
<path class="st0" d="M1.4,5C1.6,4.3,1.8,3.7,2,3.4c0.4-0.5,0.9-0.8,1.6-0.8c0.2,0,0.5,0,0.8,0.1C4.7,2.8,5,2.9,5.3,3l0,0l2.4,1
	c0.6,0.2,1,0.4,1.3,0.5c0.5,0.1,0.9,0.2,1.3,0.2c1.2,0,2-0.5,2.6-1.4c0.6-1,1-2,1.2-3.2l0,0h-1.4c-0.1,0.7-0.4,1.3-0.8,1.7
	c-0.4,0.5-0.9,0.7-1.5,0.7c-0.3,0-0.7-0.1-1.1-0.2C9,2.2,8.7,2.1,8.3,1.9l0,0L5.7,0.8C5.3,0.7,4.8,0.5,4.4,0.5
	c-0.3,0-0.5-0.1-0.7-0.1c-0.5,0-1,0.1-1.3,0.3C1.9,0.9,1.6,1.2,1.3,1.6C0.9,2.2,0.6,2.8,0.4,3.3C0.3,3.7,0.1,4.3,0,5l0,0H1.4z"/>
</svg>
