<?xml version="1.0" encoding="utf-8"?>
<!-- Generator: Adobe Illustrator 24.1.0, SVG Export Plug-In . SVG Version: 6.00 Build 0)  -->
<svg version="1.1" id="Layer_1" xmlns="http://www.w3.org/2000/svg" xmlns:xlink="http://www.w3.org/1999/xlink" x="0px" y="0px"
	 viewBox="0 0 18 21" style="enable-background:new 0 0 18 21;" xml:space="preserve">
<style type="text/css">
	.st0{fill:#55575A;}
</style>
<path class="st0" d="M12,0H6v2h6V0z M8,13h2V7H8V13z M16,6.4L17.4,5C17,4.5,16.5,4,16,3.6L14.6,5C13,3.7,11.1,3,9,3
	c-4.9,0-8.9,4-8.9,9s4,9,8.9,9s8.9-4,8.9-9C17.9,9.9,17.2,7.9,16,6.4z M9,19c-3.8,0-7-3.1-7-7s3.1-7,7-7s7,3.1,7,7S12.8,19,9,19z"/>
</svg>
