<?xml version="1.0" encoding="utf-8"?>
<!-- Generator: Adobe Illustrator 24.1.0, SVG Export Plug-In . SVG Version: 6.00 Build 0)  -->
<svg version="1.1" id="Layer_1" xmlns="http://www.w3.org/2000/svg" xmlns:xlink="http://www.w3.org/1999/xlink" x="0px" y="0px"
	 viewBox="0 0 20 20" style="enable-background:new 0 0 20 20;" xml:space="preserve">
<style type="text/css">
	.st0{fill:#55575A;}
</style>
<path class="st0" d="M10,0C4.5,0,0,4.5,0,10s4.5,10,10,10s10-4.5,10-10S15.5,0,10,0z M2,10c0-4.4,3.6-8,8-8c1.9,0,3.6,0.6,4.9,1.7
	L3.7,14.9C2.6,13.6,2,11.9,2,10z M10,18c-1.9,0-3.6-0.6-4.9-1.7L16.3,5.1c1.1,1.3,1.7,3,1.7,4.9C18,14.4,14.4,18,10,18z"/>
</svg>
